<svg width="780" height="440" viewBox="0 0 780 440" xmlns="http://www.w3.org/2000/svg">
  <defs>
    <style>
      .title { font: bold 14px 'Segoe UI',Arial,sans-serif; fill:#2c3e50; }
      .sub   { font: 10px 'Segoe UI',Arial,sans-serif; fill:#95a5a6; }
      .lbl   { font: 9px 'Segoe UI',Arial,sans-serif; }
      .sec   { font: bold 10px 'Segoe UI',Arial,sans-serif; fill:#7f8c8d; letter-spacing:1px; }
      .ann   { font: italic 9px 'Segoe UI',Arial,sans-serif; }
    </style>
    <marker id="arr" markerWidth="6" markerHeight="6" refX="5" refY="3" orient="auto">
      <path d="M0,0 L6,3 L0,6 Z" fill="#e74c3c" opacity="0.7"/>
    </marker>
  </defs>

  <!-- Background -->
  <rect width="780" height="440" fill="#ffffff" rx="8"/>
  <rect x="1" y="1" width="778" height="438" fill="none" stroke="#ecf0f1" stroke-width="1" rx="8"/>

  <!-- TITLE -->
  <text x="390" y="25" text-anchor="middle" class="title">Cảm xúc · Giấc ngủ · Học tập — April 2026</text>
  <text x="390" y="41" text-anchor="middle" class="sub">Tác nhân — Phản ứng — Phục hồi</text>

  <!-- ====== VERTICAL EVENT LINES (span toàn chart, y=52–242) ====== -->
  <!-- Học tâm lý học: days 1,3,6,8,13,20,22 -->
  <line x1="93"  y1="52" x2="93"  y2="242" stroke="#27ae60" stroke-width="1"   opacity="0.18"/>
  <line x1="146" y1="52" x2="146" y2="242" stroke="#27ae60" stroke-width="1"   opacity="0.18"/>
  <line x1="225" y1="52" x2="225" y2="242" stroke="#27ae60" stroke-width="1"   opacity="0.18"/>
  <line x1="278" y1="52" x2="278" y2="242" stroke="#27ae60" stroke-width="1.8" opacity="0.4"/>
  <line x1="410" y1="52" x2="410" y2="242" stroke="#27ae60" stroke-width="1"   opacity="0.18"/>
  <line x1="595" y1="52" x2="595" y2="242" stroke="#27ae60" stroke-width="1"   opacity="0.18"/>
  <line x1="648" y1="52" x2="648" y2="242" stroke="#27ae60" stroke-width="1"   opacity="0.18"/>
  <!-- Học tư duy: days 2,7,9,23 -->
  <line x1="120" y1="52" x2="120" y2="242" stroke="#8e44ad" stroke-width="1"   opacity="0.18"/>
  <line x1="252" y1="52" x2="252" y2="242" stroke="#8e44ad" stroke-width="1"   opacity="0.18"/>
  <line x1="304" y1="52" x2="304" y2="242" stroke="#8e44ad" stroke-width="1.8" opacity="0.4"/>
  <line x1="674" y1="52" x2="674" y2="242" stroke="#8e44ad" stroke-width="1"   opacity="0.18"/>

  <!-- Crisis zone highlight (days 10–13) -->
  <rect x="318" y="52" width="106" height="190" fill="#e74c3c" opacity="0.04" rx="3"/>

  <!-- ====== HỌC ROW (y=52–82) ====== -->
  <text x="74" y="63" text-anchor="end" class="lbl" fill="#27ae60" font-weight="bold">TLH</text>
  <text x="74" y="77" text-anchor="end" class="lbl" fill="#8e44ad" font-weight="bold">TD</text>

  <!-- Học tâm lý học dots (y=60) -->
  <circle cx="93"  cy="60" r="4" fill="#27ae60"/>
  <circle cx="146" cy="60" r="4" fill="#27ae60"/>
  <circle cx="225" cy="60" r="4" fill="#27ae60"/>
  <circle cx="278" cy="60" r="5" fill="#27ae60" stroke="#1e8449" stroke-width="1.2"/>
  <circle cx="410" cy="60" r="4" fill="#27ae60"/>
  <circle cx="595" cy="60" r="4" fill="#27ae60"/>
  <circle cx="648" cy="60" r="4" fill="#27ae60"/>

  <!-- Học tư duy dots (y=74) -->
  <circle cx="120" cy="74" r="4" fill="#8e44ad"/>
  <circle cx="252" cy="74" r="4" fill="#8e44ad"/>
  <circle cx="304" cy="74" r="5" fill="#8e44ad" stroke="#6c3483" stroke-width="1.2"/>
  <circle cx="674" cy="74" r="4" fill="#8e44ad"/>

  <!-- ====== EMOTION CHART (y=90–240) ====== -->
  <text x="30" y="96" class="sec">CẢM XÚC</text>

  <!-- Zone backgrounds -->
  <rect x="80" y="90"  width="660" height="64" fill="#f0faf4" rx="2"/>
  <rect x="80" y="154" width="660" height="65" fill="#fefdf0" rx="2"/>
  <rect x="80" y="219" width="660" height="21" fill="#fdf5f5" rx="2"/>

  <!-- Y axis labels -->
  <text x="74" y="243" text-anchor="end" class="lbl" fill="#e74c3c" font-weight="bold">D</text>
  <text x="74" y="222" text-anchor="end" class="lbl" fill="#e67e22">C-</text>
  <text x="74" y="200" text-anchor="end" class="lbl" fill="#e67e22">C</text>
  <text x="74" y="179" text-anchor="end" class="lbl" fill="#f39c12">C+</text>
  <text x="74" y="157" text-anchor="end" class="lbl" fill="#d4ac0d">B-</text>
  <text x="74" y="136" text-anchor="end" class="lbl" fill="#27ae60">B</text>
  <text x="74" y="114" text-anchor="end" class="lbl" fill="#1e8449">B+</text>
  <text x="74" y="93"  text-anchor="end" class="lbl" fill="#1a5276">A</text>

  <!-- Grid lines -->
  <line x1="80" y1="240" x2="740" y2="240" stroke="#ebebeb" stroke-width="0.5"/>
  <line x1="80" y1="219" x2="740" y2="219" stroke="#ebebeb" stroke-width="0.5"/>
  <line x1="80" y1="197" x2="740" y2="197" stroke="#ebebeb" stroke-width="0.5"/>
  <line x1="80" y1="176" x2="740" y2="176" stroke="#ebebeb" stroke-width="0.5"/>
  <line x1="80" y1="154" x2="740" y2="154" stroke="#ebebeb" stroke-width="0.5"/>
  <line x1="80" y1="133" x2="740" y2="133" stroke="#ebebeb" stroke-width="0.5"/>

  <!-- Connecting line (dashed) -->
  <polyline
    points="331,240 357,240 384,240 410,240 436,133 463,133 489,133 516,133 542,133 568,133 595,154 621,154 648,154 674,219 700,176 727,176"
    fill="none" stroke="#bdc3c7" stroke-width="1.5" stroke-dasharray="4,3"/>

  <!-- Emotion dots -->
  <circle cx="331" cy="240" r="7" fill="#e74c3c"/>
  <circle cx="357" cy="240" r="7" fill="#e74c3c"/>
  <circle cx="384" cy="240" r="7" fill="#e74c3c"/>
  <circle cx="410" cy="240" r="7" fill="#e74c3c"/>
  <circle cx="436" cy="133" r="7" fill="#2ecc71"/>
  <circle cx="463" cy="133" r="7" fill="#2ecc71"/>
  <circle cx="489" cy="133" r="7" fill="#2ecc71"/>
  <circle cx="516" cy="133" r="7" fill="#2ecc71"/>
  <circle cx="542" cy="133" r="7" fill="#2ecc71"/>
  <circle cx="568" cy="133" r="7" fill="#2ecc71"/>
  <circle cx="595" cy="154" r="7" fill="#f1c40f"/>
  <circle cx="621" cy="154" r="7" fill="#f1c40f"/>
  <circle cx="648" cy="154" r="7" fill="#f1c40f"/>
  <circle cx="674" cy="219" r="7" fill="#e67e22"/>
  <circle cx="700" cy="176" r="7" fill="#f39c12"/>
  <circle cx="727" cy="176" r="7" fill="#f39c12"/>

  <!-- Phase annotations -->
  <text x="370" y="258" text-anchor="middle" class="ann" fill="#e74c3c">khủng hoảng</text>
  <text x="502" y="120" text-anchor="middle" class="ann" fill="#27ae60">hồi phục tốt</text>
  <text x="665" y="258" text-anchor="middle" class="ann" fill="#e67e22">đang trượt</text>

  <!-- Lag annotation: học ngày 8-9 → crisis ngày 10 -->
  <line x1="291" y1="250" x2="322" y2="250"
        stroke="#e74c3c" stroke-width="1.2" stroke-dasharray="2,2"
        opacity="0.65" marker-end="url(#arr)"/>
  <text x="305" y="262" text-anchor="middle" class="ann" fill="#e74c3c" font-size="8">+2 ngày</text>

  <!-- ====== SLEEP CHART (y=272–372) ====== -->
  <text x="30" y="278" class="sec">NGỦ</text>

  <!-- Y axis labels -->
  <text x="74" y="375" text-anchor="end" class="lbl" fill="#95a5a6">4h</text>
  <text x="74" y="355" text-anchor="end" class="lbl" fill="#95a5a6">5h</text>
  <text x="74" y="335" text-anchor="end" class="lbl" fill="#95a5a6">6h</text>
  <text x="74" y="315" text-anchor="end" class="lbl" fill="#95a5a6">7h</text>
  <text x="74" y="295" text-anchor="end" class="lbl" fill="#95a5a6">8h</text>
  <text x="74" y="275" text-anchor="end" class="lbl" fill="#95a5a6">9h</text>

  <!-- Baseline + 7h target -->
  <line x1="80" y1="372" x2="740" y2="372" stroke="#e0e0e0" stroke-width="1"/>
  <line x1="80" y1="312" x2="740" y2="312" stroke="#2ecc71" stroke-width="0.8" stroke-dasharray="6,4" opacity="0.3"/>
  <text x="743" y="315" class="lbl" fill="#27ae60" font-size="8">7h ★</text>

  <!-- Sleep bars (bottom=372, 1h=20px, top=372-(h-4)*20) -->
  <!-- Day 13: 4.5h → top=362, h=10 -->
  <rect x="401" y="362" width="18" height="10" fill="#1abc9c" opacity="0.4" rx="2"/>
  <text x="410" y="358" text-anchor="middle" class="lbl" fill="#c0392b" font-size="8">4.5h</text>
  <!-- Day 15: 7.5h → top=302, h=70 -->
  <rect x="454" y="302" width="18" height="70" fill="#1abc9c" rx="2"/>
  <text x="463" y="298" text-anchor="middle" class="lbl" fill="#16a085" font-size="8">7.5h</text>
  <!-- Day 16: 6.5h → top=322, h=50 -->
  <rect x="480" y="322" width="18" height="50" fill="#1abc9c" rx="2"/>
  <!-- Day 17: 6h → top=332, h=40 -->
  <rect x="507" y="332" width="18" height="40" fill="#1abc9c" rx="2"/>
  <!-- Day 18: 7h → top=312, h=60 -->
  <rect x="533" y="312" width="18" height="60" fill="#1abc9c" rx="2"/>
  <!-- Day 19: 5.5h → top=342, h=30 -->
  <rect x="559" y="342" width="18" height="30" fill="#1abc9c" opacity="0.6" rx="2"/>
  <!-- Days 20–23: 6.5h → top=322, h=50 -->
  <rect x="586" y="322" width="18" height="50" fill="#1abc9c" rx="2"/>
  <rect x="612" y="322" width="18" height="50" fill="#1abc9c" rx="2"/>
  <rect x="639" y="322" width="18" height="50" fill="#1abc9c" rx="2"/>
  <rect x="665" y="322" width="18" height="50" fill="#1abc9c" rx="2"/>
  <!-- Day 24: 9h → top=272, h=100 -->
  <rect x="691" y="272" width="18" height="100" fill="#16a085" rx="2"/>
  <text x="700" y="286" text-anchor="middle" class="lbl" fill="#ffffff" font-size="8" font-weight="bold">9h</text>
  <!-- Day 25: 7h → top=312, h=60 -->
  <rect x="718" y="312" width="18" height="60" fill="#1abc9c" rx="2"/>

  <!-- ====== X AXIS ====== -->
  <line x1="80" y1="377" x2="740" y2="377" stroke="#ddd" stroke-width="1"/>
  <text x="93"  y="389" text-anchor="middle" class="lbl" fill="#bdc3c7">1</text>
  <text x="199" y="389" text-anchor="middle" class="lbl" fill="#bdc3c7">5</text>
  <text x="331" y="389" text-anchor="middle" class="lbl" fill="#e74c3c" font-weight="bold">10</text>
  <text x="436" y="389" text-anchor="middle" class="lbl" fill="#27ae60" font-weight="bold">14</text>
  <text x="595" y="389" text-anchor="middle" class="lbl" fill="#d4ac0d" font-weight="bold">20</text>
  <text x="727" y="389" text-anchor="middle" class="lbl" fill="#f39c12" font-weight="bold">25</text>

  <!-- Today marker -->
  <line x1="727" y1="52" x2="727" y2="377" stroke="#f39c12" stroke-width="0.8" stroke-dasharray="3,4" opacity="0.4"/>
  <text x="727" y="400" text-anchor="middle" font-size="8" fill="#f39c12" opacity="0.8">hôm nay</text>

  <!-- ====== LEGEND ====== -->
  <circle cx="88"  cy="420" r="4" fill="#27ae60"/>
  <text x="96"  y="424" class="lbl" fill="#7f8c8d">Học tâm lý học</text>
  <circle cx="187" cy="420" r="4" fill="#8e44ad"/>
  <text x="195" y="424" class="lbl" fill="#7f8c8d">Học tư duy</text>
  <circle cx="264" cy="420" r="5" fill="#e74c3c"/>
  <text x="273" y="424" class="lbl" fill="#7f8c8d">Crisis D</text>
  <circle cx="320" cy="420" r="5" fill="#2ecc71"/>
  <text x="329" y="424" class="lbl" fill="#7f8c8d">Ổn B</text>
  <circle cx="367" cy="420" r="5" fill="#f1c40f"/>
  <text x="376" y="424" class="lbl" fill="#7f8c8d">Trung B-/C</text>
  <rect x="440" y="416" width="12" height="8" fill="#1abc9c" rx="1"/>
  <text x="456" y="424" class="lbl" fill="#7f8c8d">Giờ ngủ</text>
  <line x1="507" y1="420" x2="524" y2="420" stroke="#e74c3c" stroke-width="1.2" stroke-dasharray="2,2" opacity="0.65"/>
  <text x="529" y="424" class="lbl" fill="#e74c3c">Lag 2 ngày</text>
  <line x1="590" y1="420" x2="610" y2="420" stroke="#27ae60" stroke-width="1" stroke-dasharray="5,3" opacity="0.5"/>
  <text x="615" y="424" class="lbl" fill="#7f8c8d">Mục tiêu 7h ngủ</text>
</svg>
